Roman_opsz9_wght700.ufo
<glyph name="dollar" format="2">
  <advance width="591"/>
  <unicode hex="0024"/>
  <outline>
    <contour>
      <point x="320" y="650" type="line"/>
      <point x="341" y="648"/>
      <point x="423" y="643"/>
      <point x="457" y="583" type="curve"/>
      <point x="411" y="579"/>
      <point x="395" y="546"/>
      <point x="395" y="518" type="curve" smooth="yes"/>
      <point x="395" y="475"/>
      <point x="429" y="453"/>
      <point x="460" y="453" type="curve" smooth="yes"/>
      <point x="473" y="453"/>
      <point x="525" y="460"/>
      <point x="525" y="522" type="curve" smooth="yes"/>
      <point x="525" y="610"/>
      <point x="463" y="691"/>
      <point x="320" y="699" type="curve"/>
      <point x="320" y="750" type="line"/>
      <point x="271" y="750" type="line"/>
      <point x="271" y="699" type="line"/>
      <point x="130" y="689"/>
      <point x="66" y="595"/>
      <point x="66" y="497" type="curve" smooth="yes"/>
      <point x="66" y="418"/>
      <point x="115" y="369"/>
      <point x="128" y="356" type="curve"/>
      <point x="179" y="310"/>
      <point x="228" y="301"/>
      <point x="271" y="292" type="curve"/>
      <point x="271" y="44" type="line"/>
      <point x="230" y="48"/>
      <point x="161" y="61"/>
      <point x="131" y="125" type="curve"/>
      <point x="181" y="127"/>
      <point x="196" y="163"/>
      <point x="196" y="190" type="curve" smooth="yes"/>
      <point x="196" y="230"/>
      <point x="165" y="255"/>
      <point x="131" y="255" type="curve" smooth="yes"/>
      <point x="112" y="255"/>
      <point x="66" y="244"/>
      <point x="66" y="186" type="curve" smooth="yes"/>
      <point x="66" y="104"/>
      <point x="117" y="5"/>
      <point x="271" y="-5" type="curve"/>
      <point x="271" y="-56" type="line"/>
      <point x="320" y="-56" type="line"/>
      <point x="320" y="-5" type="line"/>
      <point x="479" y="9"/>
      <point x="525" y="125"/>
      <point x="525" y="211" type="curve" smooth="yes"/>
      <point x="525" y="297"/>
      <point x="474" y="349"/>
      <point x="468" y="355" type="curve" smooth="yes"/>
      <point x="417" y="408"/>
      <point x="371" y="420"/>
      <point x="320" y="430" type="curve"/>
    </contour>
    <contour>
      <point x="271" y="440" type="line"/>
      <point x="175" y="458"/>
      <point x="149" y="508"/>
      <point x="149" y="546" type="curve" smooth="yes"/>
      <point x="149" y="585"/>
      <point x="176" y="641"/>
      <point x="271" y="650" type="curve"/>
    </contour>
    <contour>
      <point x="320" y="282" type="line"/>
      <point x="390" y="270"/>
      <point x="442" y="224"/>
      <point x="442" y="162" type="curve" smooth="yes"/>
      <point x="442" y="106"/>
      <point x="404" y="53"/>
      <point x="320" y="44" type="curve"/>
    </contour>
  </outline>
</glyph>
<glyph name="asterisk" format="2">
  <advance width="591"/>
  <unicode hex="002A"/>
  <outline>
    <contour>
      <point x="317" y="493" type="line"/>
      <point x="441" y="403" type="line" smooth="yes"/>
      <point x="455" y="393"/>
      <point x="457" y="391"/>
      <point x="469" y="391" type="curve" smooth="yes"/>
      <point x="496" y="391"/>
      <point x="515" y="418"/>
      <point x="515" y="440" type="curve" smooth="yes"/>
      <point x="515" y="469"/>
      <point x="494" y="477"/>
      <point x="483" y="481" type="curve" smooth="yes"/>
      <point x="343" y="528" type="line"/>
      <point x="482" y="575" type="line" smooth="yes"/>
      <point x="493" y="579"/>
      <point x="515" y="586"/>
      <point x="515" y="616" type="curve" smooth="yes"/>
      <point x="515" y="638"/>
      <point x="497" y="665"/>
      <point x="469" y="665" type="curve" smooth="yes"/>
      <point x="463" y="665"/>
      <point x="456" y="665"/>
      <point x="441" y="654" type="curve" smooth="yes"/>
      <point x="317" y="563" type="line"/>
      <point x="339" y="695" type="line"/>
      <point x="341" y="704"/>
      <point x="341" y="708"/>
      <point x="341" y="710" type="curve" smooth="yes"/>
      <point x="341" y="734"/>
      <point x="319" y="750"/>
      <point x="295" y="750" type="curve" smooth="yes"/>
      <point x="274" y="750"/>
      <point x="250" y="736"/>
      <point x="250" y="710" type="curve" smooth="yes"/>
      <point x="250" y="709"/>
      <point x="252" y="698"/>
      <point x="252" y="696" type="curve"/>
      <point x="274" y="563" type="line"/>
      <point x="150" y="653" type="line" smooth="yes"/>
      <point x="136" y="663"/>
      <point x="134" y="665"/>
      <point x="122" y="665" type="curve" smooth="yes"/>
      <point x="95" y="665"/>
      <point x="76" y="638"/>
      <point x="76" y="616" type="curve" smooth="yes"/>
      <point x="76" y="587"/>
      <point x="97" y="579"/>
      <point x="108" y="575" type="curve" smooth="yes"/>
      <point x="248" y="528" type="line"/>
      <point x="109" y="481" type="line" smooth="yes"/>
      <point x="98" y="477"/>
      <point x="76" y="470"/>
      <point x="76" y="440" type="curve" smooth="yes"/>
      <point x="76" y="418"/>
      <point x="94" y="391"/>
      <point x="122" y="391" type="curve" smooth="yes"/>
      <point x="128" y="391"/>
      <point x="135" y="391"/>
      <point x="150" y="402" type="curve" smooth="yes"/>
      <point x="274" y="493" type="line"/>
      <point x="252" y="361" type="line"/>
      <point x="250" y="352"/>
      <point x="250" y="348"/>
      <point x="250" y="346" type="curve" smooth="yes"/>
      <point x="250" y="322"/>
      <point x="272" y="306"/>
      <point x="296" y="306" type="curve" smooth="yes"/>
      <point x="317" y="306"/>
      <point x="341" y="320"/>
      <point x="341" y="346" type="curve" smooth="yes"/>
      <point x="341" y="347"/>
      <point x="339" y="358"/>
      <point x="339" y="360" type="curve"/>
    </contour>
  </outline>
</glyph>
<glyph name="period" format="2">
  <advance width="328"/>
  <unicode hex="002E"/>
  <outline>
    <contour>
      <point x="243" y="78" type="curve" smooth="yes"/>
      <point x="243" y="124"/>
      <point x="206" y="157"/>
      <point x="165" y="157" type="curve" smooth="yes"/>
      <point x="119" y="157"/>
      <point x="86" y="120"/>
      <point x="86" y="79" type="curve" smooth="yes"/>
      <point x="86" y="33"/>
      <point x="123" y="0"/>
      <point x="164" y="0" type="curve" smooth="yes"/>
      <point x="210" y="0"/>
      <point x="243" y="37"/>
    </contour>
  </outline>
</glyph>
<glyph name="zero" format="2">
  <advance width="591"/>
  <unicode hex="0030"/>
  <outline>
    <contour>
      <point x="545" y="319" type="curve" smooth="yes"/>
      <point x="545" y="421"/>
      <point x="542" y="656"/>
      <point x="296" y="656" type="curve" smooth="yes"/>
      <point x="52" y="656"/>
      <point x="46" y="429"/>
      <point x="46" y="319" type="curve" smooth="yes"/>
      <point x="46" y="215"/>
      <point x="49" y="-12"/>
      <point x="295" y="-12" type="curve" smooth="yes"/>
      <point x="539" y="-12"/>
      <point x="545" y="208"/>
    </contour>
    <contour>
      <point x="296" y="28" type="curve" smooth="yes"/>
      <point x="269" y="28"/>
      <point x="200" y="40"/>
      <point x="187" y="132" type="curve" smooth="yes"/>
      <point x="179" y="185"/>
      <point x="179" y="276"/>
      <point x="179" y="331" type="curve" smooth="yes"/>
      <point x="179" y="394"/>
      <point x="179" y="478"/>
      <point x="187" y="525" type="curve" smooth="yes"/>
      <point x="202" y="605"/>
      <point x="269" y="616"/>
      <point x="295" y="616" type="curve" smooth="yes"/>
      <point x="328" y="616"/>
      <point x="391" y="600"/>
      <point x="404" y="522" type="curve" smooth="yes"/>
      <point x="412" y="474"/>
      <point x="412" y="388"/>
      <point x="412" y="331" type="curve" smooth="yes"/>
      <point x="412" y="253"/>
      <point x="412" y="134"/>
      <point x="396" y="95" type="curve" smooth="yes"/>
      <point x="374" y="46"/>
      <point x="329" y="28"/>
    </contour>
  </outline>
</glyph>
<glyph name="two" format="2">
  <advance width="591"/>
  <unicode hex="0032"/>
  <outline>
    <contour>
      <point x="532" y="225" type="line"/>
      <point x="481" y="225" type="line"/>
      <point x="479" y="211"/>
      <point x="470" y="140"/>
      <point x="455" y="133" type="curve"/>
      <point x="442" y="128"/>
      <point x="368" y="128"/>
      <point x="351" y="128" type="curve" smooth="yes"/>
      <point x="208" y="128" type="line"/>
      <point x="261" y="171"/>
      <point x="321" y="218"/>
      <point x="371" y="253" type="curve" smooth="yes"/>
      <point x="455" y="312"/>
      <point x="532" y="366"/>
      <point x="532" y="464" type="curve" smooth="yes"/>
      <point x="532" y="581"/>
      <point x="425" y="656"/>
      <point x="280" y="656" type="curve" smooth="yes"/>
      <point x="156" y="656"/>
      <point x="59" y="597"/>
      <point x="59" y="505" type="curve" smooth="yes"/>
      <point x="59" y="453"/>
      <point x="99" y="429"/>
      <point x="134" y="429" type="curve" smooth="yes"/>
      <point x="166" y="429"/>
      <point x="208" y="452"/>
      <point x="208" y="504" type="curve" smooth="yes"/>
      <point x="208" y="526"/>
      <point x="199" y="563"/>
      <point x="155" y="575" type="curve"/>
      <point x="190" y="603"/>
      <point x="235" y="607"/>
      <point x="255" y="607" type="curve" smooth="yes"/>
      <point x="337" y="607"/>
      <point x="389" y="546"/>
      <point x="389" y="463" type="curve" smooth="yes"/>
      <point x="389" y="391"/>
      <point x="346" y="325"/>
      <point x="293" y="271" type="curve" smooth="yes"/>
      <point x="70" y="51" type="line" smooth="yes"/>
      <point x="59" y="40"/>
      <point x="59" y="39"/>
      <point x="59" y="19" type="curve" smooth="yes"/>
      <point x="59" y="0" type="line"/>
      <point x="501" y="0" type="line"/>
    </contour>
  </outline>
</glyph>
<glyph name="colon" format="2">
  <advance width="328"/>
  <unicode hex="003A"/>
  <outline>
    <contour>
      <point x="243" y="365" type="curve" smooth="yes"/>
      <point x="243" y="411"/>
      <point x="206" y="444"/>
      <point x="165" y="444" type="curve" smooth="yes"/>
      <point x="119" y="444"/>
      <point x="86" y="407"/>
      <point x="86" y="366" type="curve" smooth="yes"/>
      <point x="86" y="322"/>
      <point x="121" y="287"/>
      <point x="165" y="287" type="curve" smooth="yes"/>
      <point x="208" y="287"/>
      <point x="243" y="322"/>
    </contour>
    <contour>
      <point x="243" y="78" type="curve" smooth="yes"/>
      <point x="243" y="124"/>
      <point x="206" y="157"/>
      <point x="165" y="157" type="curve" smooth="yes"/>
      <point x="119" y="157"/>
      <point x="86" y="120"/>
      <point x="86" y="79" type="curve" smooth="yes"/>
      <point x="86" y="33"/>
      <point x="123" y="0"/>
      <point x="164" y="0" type="curve" smooth="yes"/>
      <point x="210" y="0"/>
      <point x="243" y="37"/>
    </contour>
  </outline>
</glyph>
<glyph name="semicolon" format="2">
  <advance width="328"/>
  <unicode hex="003B"/>
  <outline>
    <contour>
      <point x="243" y="365" type="curve" smooth="yes"/>
      <point x="243" y="411"/>
      <point x="206" y="444"/>
      <point x="165" y="444" type="curve" smooth="yes"/>
      <point x="119" y="444"/>
      <point x="86" y="407"/>
      <point x="86" y="366" type="curve" smooth="yes"/>
      <point x="86" y="322"/>
      <point x="121" y="287"/>
      <point x="165" y="287" type="curve" smooth="yes"/>
      <point x="208" y="287"/>
      <point x="243" y="322"/>
    </contour>
    <contour>
      <point x="205" y="10" type="curve"/>
      <point x="196" y="-89"/>
      <point x="138" y="-142"/>
      <point x="119" y="-160" type="curve" smooth="yes"/>
      <point x="116" y="-163"/>
      <point x="113" y="-168"/>
      <point x="113" y="-172" type="curve" smooth="yes"/>
      <point x="113" y="-182"/>
      <point x="125" y="-194"/>
      <point x="135" y="-194" type="curve" smooth="yes"/>
      <point x="150" y="-194"/>
      <point x="246" y="-104"/>
      <point x="246" y="32" type="curve" smooth="yes"/>
      <point x="246" y="102"/>
      <point x="218" y="157"/>
      <point x="164" y="157" type="curve" smooth="yes"/>
      <point x="114" y="157"/>
      <point x="86" y="118"/>
      <point x="86" y="79" type="curve" smooth="yes"/>
      <point x="86" y="39"/>
      <point x="113" y="0"/>
      <point x="165" y="0" type="curve" smooth="yes"/>
      <point x="180" y="0"/>
      <point x="195" y="4"/>
    </contour>
  </outline>
</glyph>
<glyph name="equal" format="2">
  <advance width="920"/>
  <unicode hex="003D"/>
  <outline>
    <contour>
      <point x="808" y="334" type="line" smooth="yes"/>
      <point x="822" y="334"/>
      <point x="853" y="334"/>
      <point x="853" y="366" type="curve" smooth="yes"/>
      <point x="853" y="398"/>
      <point x="822" y="398"/>
      <point x="809" y="398" type="curve" smooth="yes"/>
      <point x="110" y="398" type="line" smooth="yes"/>
      <point x="97" y="398"/>
      <point x="66" y="398"/>
      <point x="66" y="366" type="curve" smooth="yes"/>
      <point x="66" y="334"/>
      <point x="98" y="334"/>
      <point x="111" y="334" type="curve" smooth="yes"/>
    </contour>
    <contour>
      <point x="809" y="102" type="line" smooth="yes"/>
      <point x="822" y="102"/>
      <point x="853" y="102"/>
      <point x="853" y="134" type="curve" smooth="yes"/>
      <point x="853" y="166"/>
      <point x="821" y="166"/>
      <point x="808" y="166" type="curve" smooth="yes"/>
      <point x="111" y="166" type="line" smooth="yes"/>
      <point x="98" y="166"/>
      <point x="66" y="166"/>
      <point x="66" y="134" type="curve" smooth="yes"/>
      <point x="66" y="102"/>
      <point x="97" y="102"/>
      <point x="110" y="102" type="curve" smooth="yes"/>
    </contour>
  </outline>
</glyph>
<glyph name="question" format="2">
  <advance width="558"/>
  <unicode hex="003F"/>
  <outline>
    <contour>
      <point x="288" y="279" type="line" smooth="yes"/>
      <point x="288" y="357"/>
      <point x="332" y="417"/>
      <point x="429" y="471" type="curve" smooth="yes"/>
      <point x="477" y="498"/>
      <point x="492" y="538"/>
      <point x="492" y="570" type="curve" smooth="yes"/>
      <point x="492" y="700"/>
      <point x="308" y="700"/>
      <point x="270" y="700" type="curve" smooth="yes"/>
      <point x="126" y="700"/>
      <point x="66" y="636"/>
      <point x="66" y="572" type="curve" smooth="yes"/>
      <point x="66" y="521"/>
      <point x="107" y="505"/>
      <point x="131" y="505" type="curve" smooth="yes"/>
      <point x="162" y="505"/>
      <point x="196" y="528"/>
      <point x="196" y="570" type="curve" smooth="yes"/>
      <point x="196" y="608"/>
      <point x="171" y="626"/>
      <point x="154" y="632" type="curve"/>
      <point x="194" y="659"/>
      <point x="246" y="660"/>
      <point x="264" y="660" type="curve" smooth="yes"/>
      <point x="357" y="660"/>
      <point x="359" y="625"/>
      <point x="359" y="577" type="curve" smooth="yes"/>
      <point x="359" y="527"/>
      <point x="348" y="515"/>
      <point x="327" y="494" type="curve" smooth="yes"/>
      <point x="237" y="404"/>
      <point x="237" y="309"/>
      <point x="237" y="271" type="curve" smooth="yes"/>
      <point x="237" y="229"/>
      <point x="237" y="226"/>
      <point x="263" y="226" type="curve" smooth="yes"/>
      <point x="288" y="226"/>
      <point x="288" y="234"/>
      <point x="288" y="256" type="curve" smooth="yes"/>
    </contour>
    <contour>
      <point x="341" y="78" type="curve" smooth="yes"/>
      <point x="341" y="124"/>
      <point x="304" y="157"/>
      <point x="263" y="157" type="curve" smooth="yes"/>
      <point x="218" y="157"/>
      <point x="184" y="120"/>
      <point x="184" y="79" type="curve" smooth="yes"/>
      <point x="184" y="33"/>
      <point x="221" y="0"/>
      <point x="262" y="0" type="curve" smooth="yes"/>
      <point x="307" y="0"/>
      <point x="341" y="37"/>
    </contour>
  </outline>
</glyph>
<glyph name="at" format="2">
  <advance width="920"/>
  <unicode hex="0040"/>
  <outline>
    <contour>
      <point x="695" y="453" type="line" smooth="yes"/>
      <point x="695" y="479"/>
      <point x="694" y="483"/>
      <point x="663" y="483" type="curve" smooth="yes"/>
      <point x="625" y="483" type="line"/>
      <point x="578" y="552"/>
      <point x="510" y="567"/>
      <point x="458" y="567" type="curve" smooth="yes"/>
      <point x="317" y="567"/>
      <point x="224" y="478"/>
      <point x="224" y="347" type="curve" smooth="yes"/>
      <point x="224" y="216"/>
      <point x="317" y="127"/>
      <point x="458" y="127" type="curve" smooth="yes"/>
      <point x="525" y="127"/>
      <point x="571" y="155"/>
      <point x="592" y="172" type="curve"/>
      <point x="626" y="127"/>
      <point x="699" y="127"/>
      <point x="717" y="127" type="curve" smooth="yes"/>
      <point x="849" y="127"/>
      <point x="853" y="307"/>
      <point x="853" y="345" type="curve" smooth="yes"/>
      <point x="853" y="552"/>
      <point x="706" y="700"/>
      <point x="460" y="700" type="curve" smooth="yes"/>
      <point x="202" y="700"/>
      <point x="66" y="541"/>
      <point x="66" y="347" type="curve" smooth="yes"/>
      <point x="66" y="169"/>
      <point x="184" y="-6"/>
      <point x="464" y="-6" type="curve" smooth="yes"/>
      <point x="586" y="-6"/>
      <point x="707" y="18"/>
      <point x="807" y="53" type="curve" smooth="yes"/>
      <point x="821" y="58"/>
      <point x="842" y="65"/>
      <point x="847" y="68" type="curve"/>
      <point x="849" y="70"/>
      <point x="853" y="74"/>
      <point x="853" y="80" type="curve" smooth="yes"/>
      <point x="853" y="96"/>
      <point x="839" y="96"/>
      <point x="824" y="96" type="curve" smooth="yes"/>
      <point x="797" y="96" type="line" smooth="yes"/>
      <point x="782" y="96"/>
      <point x="780" y="96"/>
      <point x="758" y="87" type="curve" smooth="yes"/>
      <point x="641" y="44"/>
      <point x="535" y="34"/>
      <point x="463" y="34" type="curve" smooth="yes"/>
      <point x="222" y="34"/>
      <point x="117" y="184"/>
      <point x="117" y="347" type="curve" smooth="yes"/>
      <point x="117" y="527"/>
      <point x="241" y="660"/>
      <point x="459" y="660" type="curve" smooth="yes"/>
      <point x="656" y="660"/>
      <point x="802" y="550"/>
      <point x="802" y="341" type="curve" smooth="yes"/>
      <point x="802" y="246"/>
      <point x="785" y="167"/>
      <point x="727" y="167" type="curve" smooth="yes"/>
      <point x="695" y="167"/>
      <point x="695" y="212"/>
      <point x="695" y="224" type="curve" smooth="yes"/>
    </contour>
    <contour>
      <point x="578" y="226" type="line"/>
      <point x="540" y="173"/>
      <point x="484" y="167"/>
      <point x="461" y="167" type="curve" smooth="yes"/>
      <point x="399" y="167"/>
      <point x="341" y="221"/>
      <point x="341" y="347" type="curve" smooth="yes"/>
      <point x="341" y="474"/>
      <point x="399" y="527"/>
      <point x="461" y="527" type="curve" smooth="yes"/>
      <point x="483" y="527"/>
      <point x="539" y="521"/>
      <point x="578" y="468" type="curve"/>
    </contour>
  </outline>
</glyph>
<glyph name="L" format="2">
  <advance width="710"/>
  <unicode hex="004C"/>
  <outline>
    <contour>
      <point x="661" y="276" type="line"/>
      <point x="610" y="276" type="line"/>
      <point x="602" y="207"/>
      <point x="585" y="49"/>
      <point x="402" y="49" type="curve" smooth="yes"/>
      <point x="295" y="49" type="line"/>
      <point x="295" y="637" type="line"/>
      <point x="430" y="637" type="line"/>
      <point x="430" y="686" type="line"/>
      <point x="389" y="683"/>
      <point x="276" y="683"/>
      <point x="229" y="683" type="curve" smooth="yes"/>
      <point x="187" y="683"/>
      <point x="77" y="683"/>
      <point x="42" y="686" type="curve"/>
      <point x="42" y="637" type="line"/>
      <point x="150" y="637" type="line"/>
      <point x="150" y="49" type="line"/>
      <point x="42" y="49" type="line"/>
      <point x="42" y="0" type="line"/>
      <point x="630" y="0" type="line"/>
    </contour>
  </outline>
</glyph>
<glyph name="O" format="2">
  <advance width="888"/>
  <unicode hex="004F"/>
  <outline>
    <contour>
      <point x="822" y="339" type="curve" smooth="yes"/>
      <point x="822" y="548"/>
      <point x="681" y="698"/>
      <point x="444" y="698" type="curve" smooth="yes"/>
      <point x="206" y="698"/>
      <point x="66" y="547"/>
      <point x="66" y="339" type="curve" smooth="yes"/>
      <point x="66" y="137"/>
      <point x="205" y="-12"/>
      <point x="444" y="-12" type="curve" smooth="yes"/>
      <point x="683" y="-12"/>
      <point x="822" y="136"/>
    </contour>
    <contour>
      <point x="444" y="34" type="curve" smooth="yes"/>
      <point x="382" y="34"/>
      <point x="311" y="61"/>
      <point x="268" y="132" type="curve" smooth="yes"/>
      <point x="227" y="200"/>
      <point x="223" y="288"/>
      <point x="223" y="354" type="curve" smooth="yes"/>
      <point x="223" y="443"/>
      <point x="232" y="518"/>
      <point x="281" y="582" type="curve" smooth="yes"/>
      <point x="307" y="615"/>
      <point x="364" y="655"/>
      <point x="444" y="655" type="curve" smooth="yes"/>
      <point x="510" y="655"/>
      <point x="573" y="628"/>
      <point x="612" y="575" type="curve" smooth="yes"/>
      <point x="661" y="510"/>
      <point x="665" y="424"/>
      <point x="665" y="354" type="curve" smooth="yes"/>
      <point x="665" y="265"/>
      <point x="656" y="201"/>
      <point x="625" y="140" type="curve" smooth="yes"/>
      <point x="588" y="71"/>
      <point x="517" y="34"/>
    </contour>
  </outline>
</glyph>
<glyph name="P" format="2">
  <advance width="808"/>
  <unicode hex="0050"/>
  <outline>
    <contour>
      <point x="295" y="299" type="line"/>
      <point x="479" y="299" type="line" smooth="yes"/>
      <point x="622" y="299"/>
      <point x="741" y="372"/>
      <point x="741" y="490" type="curve" smooth="yes"/>
      <point x="741" y="600"/>
      <point x="640" y="686"/>
      <point x="469" y="686" type="curve" smooth="yes"/>
      <point x="42" y="686" type="line"/>
      <point x="42" y="637" type="line"/>
      <point x="150" y="637" type="line"/>
      <point x="150" y="49" type="line"/>
      <point x="42" y="49" type="line"/>
      <point x="42" y="0" type="line"/>
      <point x="77" y="3"/>
      <point x="181" y="3"/>
      <point x="222" y="3" type="curve" smooth="yes"/>
      <point x="263" y="3"/>
      <point x="368" y="3"/>
      <point x="403" y="0" type="curve"/>
      <point x="403" y="49" type="line"/>
      <point x="295" y="49" type="line"/>
    </contour>
    <contour>
      <point x="431" y="637" type="line" smooth="yes"/>
      <point x="584" y="637"/>
      <point x="584" y="561"/>
      <point x="584" y="490" type="curve" smooth="yes"/>
      <point x="584" y="420"/>
      <point x="584" y="343"/>
      <point x="430" y="343" type="curve" smooth="yes"/>
      <point x="289" y="343" type="line"/>
      <point x="289" y="637" type="line"/>
    </contour>
  </outline>
</glyph>
<glyph name="Q" format="2">
  <advance width="888"/>
  <unicode hex="0051"/>
  <outline>
    <contour>
      <point x="612" y="17" type="curve"/>
      <point x="757" y="74"/>
      <point x="822" y="203"/>
      <point x="822" y="339" type="curve" smooth="yes"/>
      <point x="822" y="548"/>
      <point x="681" y="698"/>
      <point x="444" y="698" type="curve" smooth="yes"/>
      <point x="206" y="698"/>
      <point x="66" y="547"/>
      <point x="66" y="339" type="curve" smooth="yes"/>
      <point x="66" y="137"/>
      <point x="205" y="-12"/>
      <point x="444" y="-12" type="curve" smooth="yes"/>
      <point x="456" y="-12"/>
      <point x="494" y="-12"/>
      <point x="541" y="-3" type="curve"/>
      <point x="571" y="-114"/>
      <point x="592" y="-194"/>
      <point x="687" y="-194" type="curve" smooth="yes"/>
      <point x="789" y="-194"/>
      <point x="829" y="-80"/>
      <point x="829" y="-7" type="curve" smooth="yes"/>
      <point x="829" y="0"/>
      <point x="829" y="20"/>
      <point x="809" y="20" type="curve" smooth="yes"/>
      <point x="792" y="20"/>
      <point x="790" y="4"/>
      <point x="789" y="-1" type="curve"/>
      <point x="785" y="-34"/>
      <point x="731" y="-37"/>
      <point x="704" y="-37" type="curve" smooth="yes"/>
      <point x="673" y="-37"/>
      <point x="652" y="-34"/>
    </contour>
    <contour>
      <point x="344" y="54" type="curve"/>
      <point x="225" y="112"/>
      <point x="217" y="251"/>
      <point x="217" y="340" type="curve" smooth="yes"/>
      <point x="217" y="439"/>
      <point x="230" y="515"/>
      <point x="278" y="578" type="curve" smooth="yes"/>
      <point x="312" y="622"/>
      <point x="373" y="655"/>
      <point x="444" y="655" type="curve" smooth="yes"/>
      <point x="513" y="655"/>
      <point x="582" y="624"/>
      <point x="621" y="563" type="curve" smooth="yes"/>
      <point x="661" y="502"/>
      <point x="671" y="427"/>
      <point x="671" y="340" type="curve" smooth="yes"/>
      <point x="671" y="287"/>
      <point x="671" y="137"/>
      <point x="573" y="71" type="curve"/>
      <point x="552" y="101"/>
      <point x="512" y="157"/>
      <point x="444" y="157" type="curve" smooth="yes"/>
      <point x="393" y="157"/>
      <point x="342" y="126"/>
      <point x="342" y="73" type="curve" smooth="yes"/>
      <point x="342" y="62"/>
      <point x="343" y="59"/>
    </contour>
    <contour>
      <point x="526" y="46" type="curve"/>
      <point x="486" y="31"/>
      <point x="456" y="31"/>
      <point x="444" y="31" type="curve" smooth="yes"/>
      <point x="392" y="31"/>
      <point x="382" y="61"/>
      <point x="382" y="73" type="curve" smooth="yes"/>
      <point x="382" y="101"/>
      <point x="413" y="117"/>
      <point x="444" y="117" type="curve" smooth="yes"/>
      <point x="470" y="117"/>
      <point x="504" y="108"/>
    </contour>
  </outline>
</glyph>
<glyph name="Z" format="2">
  <advance width="723"/>
  <unicode hex="005A"/>
  <outline>
    <contour>
      <point x="647" y="633" type="line" smooth="yes"/>
      <point x="656" y="646"/>
      <point x="656" y="652"/>
      <point x="656" y="660" type="curve" smooth="yes"/>
      <point x="656" y="686"/>
      <point x="643" y="686"/>
      <point x="622" y="686" type="curve" smooth="yes"/>
      <point x="95" y="686" type="line"/>
      <point x="82" y="443" type="line"/>
      <point x="133" y="443" type="line"/>
      <point x="142" y="603"/>
      <point x="243" y="637"/>
      <point x="353" y="637" type="curve" smooth="yes"/>
      <point x="485" y="637" type="line"/>
      <point x="74" y="54" type="line" smooth="yes"/>
      <point x="66" y="43"/>
      <point x="66" y="37"/>
      <point x="66" y="28" type="curve" smooth="yes"/>
      <point x="66" y="0"/>
      <point x="78" y="0"/>
      <point x="100" y="0" type="curve" smooth="yes"/>
      <point x="644" y="0" type="line"/>
      <point x="663" y="286" type="line"/>
      <point x="612" y="286" type="line"/>
      <point x="603" y="160"/>
      <point x="577" y="53"/>
      <point x="380" y="53" type="curve" smooth="yes"/>
      <point x="238" y="53" type="line"/>
    </contour>
  </outline>
</glyph>
<glyph name="bracketleft" format="2">
  <advance width="328"/>
  <unicode hex="005B"/>
  <outline>
    <contour>
      <point x="302" y="-250" type="line"/>
      <point x="302" y="-186" type="line"/>
      <point x="195" y="-186" type="line"/>
      <point x="195" y="686" type="line"/>
      <point x="302" y="686" type="line"/>
      <point x="302" y="750" type="line"/>
      <point x="131" y="750" type="line"/>
      <point x="131" y="-250" type="line"/>
    </contour>
  </outline>
</glyph>
<glyph name="d" format="2">
  <advance width="657"/>
  <unicode hex="0064"/>
  <outline>
    <contour>
      <point x="368" y="686" type="line"/>
      <point x="368" y="637" type="line"/>
      <point x="428" y="637"/>
      <point x="436" y="637"/>
      <point x="436" y="598" type="curve" smooth="yes"/>
      <point x="436" y="405" type="line"/>
      <point x="392" y="437"/>
      <point x="345" y="450"/>
      <point x="297" y="450" type="curve" smooth="yes"/>
      <point x="134" y="450"/>
      <point x="39" y="351"/>
      <point x="39" y="222" type="curve" smooth="yes"/>
      <point x="39" y="89"/>
      <point x="133" y="-6"/>
      <point x="285" y="-6" type="curve" smooth="yes"/>
      <point x="348" y="-6"/>
      <point x="398" y="18"/>
      <point x="430" y="44" type="curve"/>
      <point x="430" y="-6" type="line"/>
      <point x="615" y="0" type="line"/>
      <point x="615" y="49" type="line"/>
      <point x="555" y="49"/>
      <point x="547" y="49"/>
      <point x="547" y="88" type="curve" smooth="yes"/>
      <point x="547" y="694" type="line"/>
    </contour>
    <contour>
      <point x="430" y="109" type="line"/>
      <point x="408" y="74"/>
      <point x="360" y="34"/>
      <point x="296" y="34" type="curve" smooth="yes"/>
      <point x="172" y="34"/>
      <point x="172" y="154"/>
      <point x="172" y="220" type="curve" smooth="yes"/>
      <point x="172" y="278"/>
      <point x="173" y="321"/>
      <point x="199" y="358" type="curve" smooth="yes"/>
      <point x="225" y="398"/>
      <point x="273" y="410"/>
      <point x="308" y="410" type="curve" smooth="yes"/>
      <point x="358" y="410"/>
      <point x="399" y="388"/>
      <point x="430" y="349" type="curve"/>
    </contour>
  </outline>
</glyph>
<glyph name="h" format="2">
  <advance width="657"/>
  <unicode hex="0068"/>
  <outline>
    <contour>
      <point x="562" y="305" type="line" smooth="yes"/>
      <point x="562" y="424"/>
      <point x="490" y="450"/>
      <point x="403" y="450" type="curve" smooth="yes"/>
      <point x="308" y="450"/>
      <point x="255" y="396"/>
      <point x="229" y="355" type="curve"/>
      <point x="229" y="694" type="line"/>
      <point x="50" y="686" type="line"/>
      <point x="50" y="637" type="line"/>
      <point x="110" y="637"/>
      <point x="118" y="637"/>
      <point x="118" y="598" type="curve" smooth="yes"/>
      <point x="118" y="49" type="line"/>
      <point x="50" y="49" type="line"/>
      <point x="50" y="0" type="line"/>
      <point x="124" y="3"/>
      <point x="136" y="3"/>
      <point x="176" y="3" type="curve" smooth="yes"/>
      <point x="217" y="3"/>
      <point x="227" y="3"/>
      <point x="303" y="0" type="curve"/>
      <point x="303" y="49" type="line"/>
      <point x="235" y="49" type="line"/>
      <point x="235" y="254" type="line" smooth="yes"/>
      <point x="235" y="366"/>
      <point x="327" y="410"/>
      <point x="387" y="410" type="curve" smooth="yes"/>
      <point x="425" y="410"/>
      <point x="445" y="389"/>
      <point x="445" y="314" type="curve" smooth="yes"/>
      <point x="445" y="49" type="line"/>
      <point x="377" y="49" type="line"/>
      <point x="377" y="0" type="line"/>
      <point x="451" y="3"/>
      <point x="463" y="3"/>
      <point x="503" y="3" type="curve" smooth="yes"/>
      <point x="544" y="3"/>
      <point x="554" y="3"/>
      <point x="630" y="0" type="curve"/>
      <point x="630" y="49" type="line"/>
      <point x="562" y="49" type="line"/>
    </contour>
  </outline>
</glyph>
<glyph name="m" format="2">
  <advance width="986"/>
  <unicode hex="006D"/>
  <outline>
    <contour>
      <point x="891" y="305" type="line" smooth="yes"/>
      <point x="891" y="423"/>
      <point x="820" y="450"/>
      <point x="732" y="450" type="curve" smooth="yes"/>
      <point x="628" y="450"/>
      <point x="577" y="387"/>
      <point x="558" y="356" type="curve"/>
      <point x="536" y="446"/>
      <point x="448" y="450"/>
      <point x="404" y="450" type="curve" smooth="yes"/>
      <point x="280" y="450"/>
      <point x="231" y="360"/>
      <point x="224" y="345" type="curve"/>
      <point x="223" y="345" type="line"/>
      <point x="223" y="450" type="line"/>
      <point x="50" y="442" type="line"/>
      <point x="50" y="393" type="line"/>
      <point x="110" y="393"/>
      <point x="118" y="393"/>
      <point x="118" y="354" type="curve" smooth="yes"/>
      <point x="118" y="49" type="line"/>
      <point x="50" y="49" type="line"/>
      <point x="50" y="0" type="line"/>
      <point x="124" y="3"/>
      <point x="136" y="3"/>
      <point x="176" y="3" type="curve" smooth="yes"/>
      <point x="217" y="3"/>
      <point x="227" y="3"/>
      <point x="303" y="0" type="curve"/>
      <point x="303" y="49" type="line"/>
      <point x="235" y="49" type="line"/>
      <point x="235" y="254" type="line" smooth="yes"/>
      <point x="235" y="365"/>
      <point x="327" y="410"/>
      <point x="387" y="410" type="curve" smooth="yes"/>
      <point x="425" y="410"/>
      <point x="446" y="390"/>
      <point x="446" y="314" type="curve" smooth="yes"/>
      <point x="446" y="49" type="line"/>
      <point x="378" y="49" type="line"/>
      <point x="378" y="0" type="line"/>
      <point x="452" y="3"/>
      <point x="464" y="3"/>
      <point x="504" y="3" type="curve" smooth="yes"/>
      <point x="545" y="3"/>
      <point x="555" y="3"/>
      <point x="631" y="0" type="curve"/>
      <point x="631" y="49" type="line"/>
      <point x="563" y="49" type="line"/>
      <point x="563" y="254" type="line" smooth="yes"/>
      <point x="563" y="365"/>
      <point x="655" y="410"/>
      <point x="715" y="410" type="curve" smooth="yes"/>
      <point x="753" y="410"/>
      <point x="774" y="390"/>
      <point x="774" y="314" type="curve" smooth="yes"/>
      <point x="774" y="49" type="line"/>
      <point x="706" y="49" type="line"/>
      <point x="706" y="0" type="line"/>
      <point x="780" y="3"/>
      <point x="792" y="3"/>
      <point x="832" y="3" type="curve" smooth="yes"/>
      <point x="873" y="3"/>
      <point x="883" y="3"/>
      <point x="959" y="0" type="curve"/>
      <point x="959" y="49" type="line"/>
      <point x="891" y="49" type="line"/>
    </contour>
  </outline>
</glyph>
<glyph name="u" format="2">
  <advance width="657"/>
  <unicode hex="0075"/>
  <outline>
    <contour>
      <point x="377" y="442" type="line"/>
      <point x="377" y="393" type="line"/>
      <point x="437" y="393"/>
      <point x="445" y="393"/>
      <point x="445" y="354" type="curve" smooth="yes"/>
      <point x="445" y="164" type="line" smooth="yes"/>
      <point x="445" y="84"/>
      <point x="393" y="34"/>
      <point x="316" y="34" type="curve" smooth="yes"/>
      <point x="239" y="34"/>
      <point x="235" y="56"/>
      <point x="235" y="109" type="curve" smooth="yes"/>
      <point x="235" y="450" type="line"/>
      <point x="50" y="442" type="line"/>
      <point x="50" y="393" type="line"/>
      <point x="110" y="393"/>
      <point x="118" y="393"/>
      <point x="118" y="354" type="curve" smooth="yes"/>
      <point x="118" y="123" type="line" smooth="yes"/>
      <point x="118" y="14"/>
      <point x="204" y="-6"/>
      <point x="301" y="-6" type="curve" smooth="yes"/>
      <point x="332" y="-6"/>
      <point x="400" y="-6"/>
      <point x="451" y="69" type="curve"/>
      <point x="451" y="-6" type="line"/>
      <point x="630" y="0" type="line"/>
      <point x="630" y="49" type="line"/>
      <point x="570" y="49"/>
      <point x="562" y="49"/>
      <point x="562" y="88" type="curve" smooth="yes"/>
      <point x="562" y="450" type="line"/>
    </contour>
  </outline>
</glyph>
<glyph name="v" format="2">
  <advance width="624"/>
  <unicode hex="0076"/>
  <outline>
    <contour>
      <point x="523" y="374" type="line" smooth="yes"/>
      <point x="530" y="388"/>
      <point x="533" y="395"/>
      <point x="596" y="395" type="curve"/>
      <point x="596" y="444" type="line"/>
      <point x="568" y="441"/>
      <point x="543" y="441"/>
      <point x="515" y="441" type="curve" smooth="yes"/>
      <point x="486" y="441"/>
      <point x="454" y="441"/>
      <point x="425" y="444" type="curve"/>
      <point x="425" y="395" type="line"/>
      <point x="453" y="395"/>
      <point x="462" y="390"/>
      <point x="471" y="386" type="curve"/>
      <point x="470" y="382"/>
      <point x="470" y="380"/>
      <point x="465" y="372" type="curve"/>
      <point x="345" y="123" type="line"/>
      <point x="214" y="395" type="line"/>
      <point x="266" y="395" type="line"/>
      <point x="266" y="444" type="line"/>
      <point x="200" y="442"/>
      <point x="180" y="441"/>
      <point x="143" y="441" type="curve" smooth="yes"/>
      <point x="107" y="441"/>
      <point x="87" y="441"/>
      <point x="28" y="444" type="curve"/>
      <point x="28" y="395" type="line"/>
      <point x="91" y="395" type="line"/>
      <point x="270" y="23" type="line" smooth="yes"/>
      <point x="279" y="4"/>
      <point x="287" y="-5"/>
      <point x="312" y="-5" type="curve" smooth="yes"/>
      <point x="337" y="-5"/>
      <point x="345" y="4"/>
      <point x="354" y="23" type="curve" smooth="yes"/>
    </contour>
  </outline>
</glyph>
<glyph name="cedilla" format="2">
  <advance width="525"/>
  <unicode hex="00B8"/>
  <outline>
    <contour>
      <point x="354" y="-12" type="line"/>
      <point x="237" y="-12" type="line"/>
      <point x="237" y="-61" type="line"/>
      <point x="278" y="-61"/>
      <point x="335" y="-68"/>
      <point x="335" y="-111" type="curve" smooth="yes"/>
      <point x="335" y="-162"/>
      <point x="218" y="-162"/>
      <point x="178" y="-162" type="curve" smooth="yes"/>
      <point x="138" y="-162" type="line"/>
      <point x="138" y="-202" type="line"/>
      <point x="197" y="-202" type="line" smooth="yes"/>
      <point x="452" y="-202"/>
      <point x="452" y="-136"/>
      <point x="452" y="-110" type="curve" smooth="yes"/>
      <point x="452" y="-58"/>
      <point x="410" y="-37"/>
      <point x="354" y="-27" type="curve"/>
    </contour>
  </outline>
</glyph>
<glyph name="oslash" format="2">
  <advance width="591"/>
  <unicode hex="00F8"/>
  <outline>
    <contour>
      <point x="516" y="531" type="line"/>
      <point x="483" y="553" type="line"/>
      <point x="408" y="435" type="line"/>
      <point x="393" y="440"/>
      <point x="352" y="453"/>
      <point x="296" y="453" type="curve" smooth="yes"/>
      <point x="120" y="453"/>
      <point x="33" y="344"/>
      <point x="33" y="218" type="curve" smooth="yes"/>
      <point x="33" y="176"/>
      <point x="44" y="81"/>
      <point x="147" y="27" type="curve"/>
      <point x="75" y="-86" type="line"/>
      <point x="108" y="-108" type="line"/>
      <point x="184" y="11" type="line"/>
      <point x="235" y="-6"/>
      <point x="281" y="-6"/>
      <point x="295" y="-6" type="curve" smooth="yes"/>
      <point x="474" y="-6"/>
      <point x="558" y="99"/>
      <point x="558" y="218" type="curve" smooth="yes"/>
      <point x="558" y="262"/>
      <point x="547" y="362"/>
      <point x="444" y="418" type="curve"/>
    </contour>
    <contour>
      <point x="180" y="80" type="line"/>
      <point x="151" y="117"/>
      <point x="150" y="161"/>
      <point x="150" y="219" type="curve" smooth="yes"/>
      <point x="150" y="294"/>
      <point x="150" y="413"/>
      <point x="296" y="413" type="curve" smooth="yes"/>
      <point x="322" y="413"/>
      <point x="354" y="408"/>
      <point x="380" y="392" type="curve"/>
    </contour>
    <contour>
      <point x="411" y="365" type="line"/>
      <point x="441" y="326"/>
      <point x="441" y="268"/>
      <point x="441" y="219" type="curve" smooth="yes"/>
      <point x="441" y="144"/>
      <point x="441" y="34"/>
      <point x="295" y="34" type="curve" smooth="yes"/>
      <point x="250" y="34"/>
      <point x="220" y="48"/>
      <point x="211" y="53" type="curve"/>
    </contour>
  </outline>
</glyph>
<glyph name="OE" format="2">
  <advance width="1202"/>
  <unicode hex="0152"/>
  <outline>
    <contour>
      <point x="1168" y="276" type="line"/>
      <point x="1117" y="276" type="line"/>
      <point x="1094" y="146"/>
      <point x="1074" y="49"/>
      <point x="886" y="49" type="curve" smooth="yes"/>
      <point x="736" y="49" type="line"/>
      <point x="736" y="331" type="line"/>
      <point x="829" y="331" type="line" smooth="yes"/>
      <point x="920" y="331"/>
      <point x="952" y="306"/>
      <point x="952" y="214" type="curve"/>
      <point x="1003" y="214" type="line"/>
      <point x="1003" y="497" type="line"/>
      <point x="952" y="497" type="line"/>
      <point x="952" y="405"/>
      <point x="919" y="380"/>
      <point x="829" y="380" type="curve" smooth="yes"/>
      <point x="736" y="380" type="line"/>
      <point x="736" y="637" type="line"/>
      <point x="885" y="637" type="line" smooth="yes"/>
      <point x="1047" y="637"/>
      <point x="1069" y="560"/>
      <point x="1084" y="443" type="curve"/>
      <point x="1135" y="443" type="line"/>
      <point x="1104" y="686" type="line"/>
      <point x="667" y="686" type="line" smooth="yes"/>
      <point x="656" y="686"/>
      <point x="642" y="686"/>
      <point x="576" y="692" type="curve" smooth="yes"/>
      <point x="537" y="695"/>
      <point x="510" y="698"/>
      <point x="478" y="698" type="curve" smooth="yes"/>
      <point x="223" y="698"/>
      <point x="85" y="540"/>
      <point x="85" y="339" type="curve" smooth="yes"/>
      <point x="85" y="141"/>
      <point x="225" y="-12"/>
      <point x="478" y="-12" type="curve" smooth="yes"/>
      <point x="509" y="-12"/>
      <point x="529" y="-10"/>
      <point x="575" y="-6" type="curve" smooth="yes"/>
      <point x="596" y="-4"/>
      <point x="641" y="0"/>
      <point x="667" y="0" type="curve" smooth="yes"/>
      <point x="1121" y="0" type="line"/>
    </contour>
    <contour>
      <point x="610" y="197" type="line" smooth="yes"/>
      <point x="610" y="50"/>
      <point x="574" y="28"/>
      <point x="484" y="28" type="curve" smooth="yes"/>
      <point x="333" y="28"/>
      <point x="236" y="154"/>
      <point x="236" y="355" type="curve" smooth="yes"/>
      <point x="236" y="553"/>
      <point x="341" y="658"/>
      <point x="483" y="658" type="curve" smooth="yes"/>
      <point x="573" y="658"/>
      <point x="610" y="638"/>
      <point x="610" y="489" type="curve" smooth="yes"/>
    </contour>
  </outline>
</glyph>
<glyph name="circumflex" format="2">
  <advance width="591"/>
  <unicode hex="02C6"/>
  <outline>
    <contour>
      <point x="296" y="694" type="line"/>
      <point x="133" y="568" type="line"/>
      <point x="163" y="527" type="line"/>
      <point x="295" y="607" type="line"/>
      <point x="428" y="527" type="line"/>
      <point x="458" y="568" type="line"/>
    </contour>
  </outline>
</glyph>
<glyph name="breve" format="2">
  <advance width="591"/>
  <unicode hex="02D8"/>
  <outline>
    <contour>
      <point x="440" y="694" type="line"/>
      <point x="436" y="605"/>
      <point x="353" y="572"/>
      <point x="296" y="572" type="curve" smooth="yes"/>
      <point x="235" y="572"/>
      <point x="155" y="607"/>
      <point x="151" y="694" type="curve"/>
      <point x="111" y="694" type="line"/>
      <point x="113" y="577"/>
      <point x="204" y="506"/>
      <point x="295" y="506" type="curve" smooth="yes"/>
      <point x="390" y="506"/>
      <point x="478" y="580"/>
      <point x="480" y="694" type="curve"/>
    </contour>
  </outline>
</glyph>
<glyph name="Theta" format="2">
  <advance width="920"/>
  <unicode hex="0398"/>
  <outline>
    <contour>
      <point x="853" y="339" type="curve" smooth="yes"/>
      <point x="853" y="542"/>
      <point x="713" y="698"/>
      <point x="460" y="698" type="curve" smooth="yes"/>
      <point x="200" y="698"/>
      <point x="66" y="536"/>
      <point x="66" y="339" type="curve" smooth="yes"/>
      <point x="66" y="141"/>
      <point x="206" y="-12"/>
      <point x="459" y="-12" type="curve" smooth="yes"/>
      <point x="717" y="-12"/>
      <point x="853" y="144"/>
    </contour>
    <contour>
      <point x="460" y="30" type="curve" smooth="yes"/>
      <point x="369" y="30"/>
      <point x="306" y="70"/>
      <point x="274" y="109" type="curve" smooth="yes"/>
      <point x="229" y="166"/>
      <point x="211" y="234"/>
      <point x="211" y="340" type="curve" smooth="yes"/>
      <point x="211" y="401"/>
      <point x="216" y="488"/>
      <point x="260" y="556" type="curve" smooth="yes"/>
      <point x="313" y="637"/>
      <point x="398" y="658"/>
      <point x="459" y="658" type="curve" smooth="yes"/>
      <point x="521" y="658"/>
      <point x="607" y="638"/>
      <point x="662" y="551" type="curve" smooth="yes"/>
      <point x="705" y="482"/>
      <point x="708" y="388"/>
      <point x="708" y="340" type="curve" smooth="yes"/>
      <point x="708" y="299"/>
      <point x="708" y="181"/>
      <point x="643" y="107" type="curve" smooth="yes"/>
      <point x="583" y="40"/>
      <point x="504" y="30"/>
    </contour>
    <contour>
      <point x="641" y="440" type="line"/>
      <point x="590" y="440" type="line"/>
      <point x="590" y="406" type="line"/>
      <point x="329" y="406" type="line"/>
      <point x="329" y="440" type="line"/>
      <point x="278" y="440" type="line"/>
      <point x="278" y="248" type="line"/>
      <point x="329" y="248" type="line"/>
      <point x="329" y="282" type="line"/>
      <point x="590" y="282" type="line"/>
      <point x="590" y="248" type="line"/>
      <point x="641" y="248" type="line"/>
    </contour>
  </outline>
</glyph>
<glyph name="Pi" format="2">
  <advance width="924"/>
  <unicode hex="03A0"/>
  <outline>
    <contour>
      <point x="773" y="631" type="line"/>
      <point x="881" y="631" type="line"/>
      <point x="881" y="680" type="line"/>
      <point x="42" y="680" type="line"/>
      <point x="42" y="631" type="line"/>
      <point x="150" y="631" type="line"/>
      <point x="150" y="49" type="line"/>
      <point x="42" y="49" type="line"/>
      <point x="42" y="0" type="line"/>
      <point x="77" y="3"/>
      <point x="181" y="3"/>
      <point x="222" y="3" type="curve" smooth="yes"/>
      <point x="263" y="3"/>
      <point x="368" y="3"/>
      <point x="403" y="0" type="curve"/>
      <point x="403" y="49" type="line"/>
      <point x="295" y="49" type="line"/>
      <point x="295" y="631" type="line"/>
      <point x="628" y="631" type="line"/>
      <point x="628" y="49" type="line"/>
      <point x="520" y="49" type="line"/>
      <point x="520" y="0" type="line"/>
      <point x="555" y="3"/>
      <point x="659" y="3"/>
      <point x="700" y="3" type="curve" smooth="yes"/>
      <point x="741" y="3"/>
      <point x="846" y="3"/>
      <point x="881" y="0" type="curve"/>
      <point x="881" y="49" type="line"/>
      <point x="773" y="49" type="line"/>
    </contour>
  </outline>
</glyph>
<glyph name="Phi" format="2">
  <advance width="854"/>
  <unicode hex="03A6"/>
  <outline>
    <contour>
      <point x="623" y="637" type="line"/>
      <point x="623" y="686" type="line"/>
      <point x="585" y="683"/>
      <point x="467" y="683"/>
      <point x="422" y="683" type="curve" smooth="yes"/>
      <point x="377" y="683"/>
      <point x="258" y="683"/>
      <point x="220" y="686" type="curve"/>
      <point x="220" y="637" type="line"/>
      <point x="355" y="637" type="line"/>
      <point x="355" y="531" type="line"/>
      <point x="193" y="522"/>
      <point x="66" y="448"/>
      <point x="66" y="343" type="curve" smooth="yes"/>
      <point x="66" y="237"/>
      <point x="194" y="164"/>
      <point x="355" y="155" type="curve"/>
      <point x="355" y="49" type="line"/>
      <point x="220" y="49" type="line"/>
      <point x="220" y="0" type="line"/>
      <point x="258" y="3"/>
      <point x="376" y="3"/>
      <point x="421" y="3" type="curve" smooth="yes"/>
      <point x="466" y="3"/>
      <point x="585" y="3"/>
      <point x="623" y="0" type="curve"/>
      <point x="623" y="49" type="line"/>
      <point x="488" y="49" type="line"/>
      <point x="488" y="154" type="line"/>
      <point x="698" y="167"/>
      <point x="788" y="257"/>
      <point x="788" y="343" type="curve" smooth="yes"/>
      <point x="788" y="429"/>
      <point x="698" y="519"/>
      <point x="488" y="532" type="curve"/>
      <point x="488" y="637" type="line"/>
    </contour>
    <contour>
      <point x="355" y="196" type="line"/>
      <point x="232" y="211"/>
      <point x="217" y="280"/>
      <point x="217" y="343" type="curve" smooth="yes"/>
      <point x="217" y="406"/>
      <point x="232" y="475"/>
      <point x="355" y="490" type="curve"/>
    </contour>
    <contour>
      <point x="488" y="492" type="line"/>
      <point x="627" y="478"/>
      <point x="637" y="401"/>
      <point x="637" y="343" type="curve" smooth="yes"/>
      <point x="637" y="284"/>
      <point x="626" y="208"/>
      <point x="488" y="194" type="curve"/>
    </contour>
  </outline>
</glyph>
<glyph name="quotedblright" format="2">
  <advance width="617"/>
  <unicode hex="201D"/>
  <outline>
    <contour>
      <point x="171" y="556" type="curve"/>
      <point x="167" y="481"/>
      <point x="131" y="422"/>
      <point x="76" y="380" type="curve" smooth="yes"/>
      <point x="71" y="376"/>
      <point x="66" y="373"/>
      <point x="66" y="365" type="curve" smooth="yes"/>
      <point x="66" y="355"/>
      <point x="78" y="343"/>
      <point x="88" y="343" type="curve" smooth="yes"/>
      <point x="103" y="343"/>
      <point x="212" y="428"/>
      <point x="212" y="568" type="curve" smooth="yes"/>
      <point x="212" y="639"/>
      <point x="174" y="694"/>
      <point x="117" y="694" type="curve" smooth="yes"/>
      <point x="67" y="694"/>
      <point x="39" y="655"/>
      <point x="39" y="616" type="curve" smooth="yes"/>
      <point x="39" y="576"/>
      <point x="66" y="537"/>
      <point x="118" y="537" type="curve" smooth="yes"/>
      <point x="150" y="537"/>
      <point x="169" y="554"/>
    </contour>
    <contour>
      <point x="427" y="556" type="curve"/>
      <point x="423" y="481"/>
      <point x="387" y="422"/>
      <point x="332" y="380" type="curve" smooth="yes"/>
      <point x="327" y="376"/>
      <point x="322" y="373"/>
      <point x="322" y="365" type="curve" smooth="yes"/>
      <point x="322" y="355"/>
      <point x="334" y="343"/>
      <point x="344" y="343" type="curve" smooth="yes"/>
      <point x="359" y="343"/>
      <point x="468" y="428"/>
      <point x="468" y="568" type="curve" smooth="yes"/>
      <point x="468" y="639"/>
      <point x="430" y="694"/>
      <point x="373" y="694" type="curve" smooth="yes"/>
      <point x="323" y="694"/>
      <point x="295" y="655"/>
      <point x="295" y="616" type="curve" smooth="yes"/>
      <point x="295" y="576"/>
      <point x="322" y="537"/>
      <point x="374" y="537" type="curve" smooth="yes"/>
      <point x="406" y="537"/>
      <point x="425" y="554"/>
    </contour>
  </outline>
</glyph>
<glyph name="Delta" format="2">
  <advance width="986"/>
  <unicode hex="2206"/>
  <outline>
    <contour>
      <point x="542" y="674" type="line" smooth="yes"/>
      <point x="527" y="700"/>
      <point x="514" y="700"/>
      <point x="492" y="700" type="curve" smooth="yes"/>
      <point x="474" y="700"/>
      <point x="458" y="700"/>
      <point x="444" y="676" type="curve" smooth="yes"/>
      <point x="67" y="29" type="line" smooth="yes"/>
      <point x="60" y="17"/>
      <point x="60" y="15"/>
      <point x="60" y="13" type="curve" smooth="yes"/>
      <point x="60" y="0"/>
      <point x="72" y="0"/>
      <point x="87" y="0" type="curve" smooth="yes"/>
      <point x="898" y="0" type="line" smooth="yes"/>
      <point x="913" y="0"/>
      <point x="925" y="0"/>
      <point x="925" y="13" type="curve" smooth="yes"/>
      <point x="925" y="15"/>
      <point x="925" y="17"/>
      <point x="918" y="29" type="curve" smooth="yes"/>
    </contour>
    <contour>
      <point x="443" y="556" type="line"/>
      <point x="695" y="124" type="line"/>
      <point x="190" y="124" type="line"/>
    </contour>
  </outline>
</glyph>
<glyph name="ffi" format="2">
  <advance width="986"/>
  <outline>
    <contour>
      <point x="697" y="449" type="line"/>
      <point x="697" y="444" type="line"/>
      <point x="542" y="444" type="line"/>
      <point x="542" y="540" type="line" smooth="yes"/>
      <point x="542" y="628"/>
      <point x="621" y="660"/>
      <point x="706" y="660" type="curve" smooth="yes"/>
      <point x="719" y="660"/>
      <point x="747" y="660"/>
      <point x="777" y="644" type="curve"/>
      <point x="759" y="636"/>
      <point x="737" y="617"/>
      <point x="737" y="581" type="curve" smooth="yes"/>
      <point x="737" y="542"/>
      <point x="765" y="514"/>
      <point x="804" y="514" type="curve" smooth="yes"/>
      <point x="841" y="514"/>
      <point x="871" y="540"/>
      <point x="871" y="582" type="curve" smooth="yes"/>
      <point x="871" y="635"/>
      <point x="826" y="700"/>
      <point x="714" y="700" type="curve" smooth="yes"/>
      <point x="593" y="700"/>
      <point x="536" y="670"/>
      <point x="507" y="655" type="curve"/>
      <point x="462" y="700"/>
      <point x="405" y="700"/>
      <point x="382" y="700" type="curve" smooth="yes"/>
      <point x="260" y="700"/>
      <point x="109" y="663"/>
      <point x="109" y="542" type="curve" smooth="yes"/>
      <point x="109" y="444" type="line"/>
      <point x="32" y="444" type="line"/>
      <point x="32" y="395" type="line"/>
      <point x="109" y="395" type="line"/>
      <point x="109" y="49" type="line"/>
      <point x="41" y="49" type="line"/>
      <point x="41" y="0" type="line"/>
      <point x="109" y="3"/>
      <point x="121" y="3"/>
      <point x="164" y="3" type="curve" smooth="yes"/>
      <point x="208" y="3"/>
      <point x="234" y="2"/>
      <point x="288" y="0" type="curve"/>
      <point x="288" y="49" type="line"/>
      <point x="220" y="49" type="line"/>
      <point x="220" y="395" type="line"/>
      <point x="437" y="395" type="line"/>
      <point x="437" y="49" type="line"/>
      <point x="369" y="49" type="line"/>
      <point x="369" y="0" type="line"/>
      <point x="437" y="3"/>
      <point x="449" y="3"/>
      <point x="492" y="3" type="curve" smooth="yes"/>
      <point x="536" y="3"/>
      <point x="562" y="2"/>
      <point x="616" y="0" type="curve"/>
      <point x="616" y="49" type="line"/>
      <point x="548" y="49" type="line"/>
      <point x="548" y="395" type="line"/>
      <point x="737" y="395" type="line" smooth="yes"/>
      <point x="760" y="395"/>
      <point x="765" y="395"/>
      <point x="765" y="360" type="curve" smooth="yes"/>
      <point x="765" y="49" type="line"/>
      <point x="697" y="49" type="line"/>
      <point x="697" y="0" type="line"/>
      <point x="765" y="3"/>
      <point x="777" y="3"/>
      <point x="820" y="3" type="curve" smooth="yes"/>
      <point x="864" y="3"/>
      <point x="890" y="2"/>
      <point x="944" y="0" type="curve"/>
      <point x="944" y="49" type="line"/>
      <point x="876" y="49" type="line"/>
      <point x="876" y="454" type="line"/>
    </contour>
    <contour>
      <point x="214" y="444" type="line"/>
      <point x="214" y="540" type="line" smooth="yes"/>
      <point x="214" y="629"/>
      <point x="293" y="660"/>
      <point x="374" y="660" type="curve" smooth="yes"/>
      <point x="386" y="660"/>
      <point x="415" y="660"/>
      <point x="444" y="644" type="curve"/>
      <point x="429" y="638"/>
      <point x="403" y="621"/>
      <point x="403" y="581" type="curve" smooth="yes"/>
      <point x="403" y="551"/>
      <point x="417" y="533"/>
      <point x="437" y="522" type="curve"/>
      <point x="437" y="444" type="line"/>
    </contour>
  </outline>
</glyph>
<glyph name="ffl" format="2">
  <advance width="986"/>
  <outline>
    <contour>
      <point x="876" y="694" type="line"/>
      <point x="867" y="693"/>
      <point x="819" y="690"/>
      <point x="814" y="690" type="curve"/>
      <point x="811" y="689"/>
      <point x="809" y="689"/>
      <point x="806" y="689" type="curve" smooth="yes"/>
      <point x="799" y="689"/>
      <point x="798" y="689"/>
      <point x="792" y="691" type="curve"/>
      <point x="758" y="700"/>
      <point x="732" y="700"/>
      <point x="712" y="700" type="curve" smooth="yes"/>
      <point x="622" y="700"/>
      <point x="562" y="684"/>
      <point x="513" y="659" type="curve"/>
      <point x="470" y="700"/>
      <point x="403" y="700"/>
      <point x="383" y="700" type="curve" smooth="yes"/>
      <point x="257" y="700"/>
      <point x="109" y="661"/>
      <point x="109" y="542" type="curve" smooth="yes"/>
      <point x="109" y="444" type="line"/>
      <point x="32" y="444" type="line"/>
      <point x="32" y="395" type="line"/>
      <point x="109" y="395" type="line"/>
      <point x="109" y="49" type="line"/>
      <point x="41" y="49" type="line"/>
      <point x="41" y="0" type="line"/>
      <point x="109" y="3"/>
      <point x="121" y="3"/>
      <point x="164" y="3" type="curve" smooth="yes"/>
      <point x="208" y="3"/>
      <point x="234" y="2"/>
      <point x="288" y="0" type="curve"/>
      <point x="288" y="49" type="line"/>
      <point x="220" y="49" type="line"/>
      <point x="220" y="395" type="line"/>
      <point x="437" y="395" type="line"/>
      <point x="437" y="49" type="line"/>
      <point x="369" y="49" type="line"/>
      <point x="369" y="0" type="line"/>
      <point x="437" y="3"/>
      <point x="449" y="3"/>
      <point x="492" y="3" type="curve" smooth="yes"/>
      <point x="536" y="3"/>
      <point x="562" y="2"/>
      <point x="616" y="0" type="curve"/>
      <point x="616" y="49" type="line"/>
      <point x="548" y="49" type="line"/>
      <point x="548" y="395" type="line"/>
      <point x="765" y="395" type="line"/>
      <point x="765" y="49" type="line"/>
      <point x="697" y="49" type="line"/>
      <point x="697" y="0" type="line"/>
      <point x="765" y="3"/>
      <point x="777" y="3"/>
      <point x="820" y="3" type="curve" smooth="yes"/>
      <point x="864" y="3"/>
      <point x="890" y="2"/>
      <point x="944" y="0" type="curve"/>
      <point x="944" y="49" type="line"/>
      <point x="876" y="49" type="line"/>
    </contour>
    <contour>
      <point x="214" y="444" type="line"/>
      <point x="214" y="540" type="line" smooth="yes"/>
      <point x="214" y="559"/>
      <point x="214" y="601"/>
      <point x="262" y="632" type="curve" smooth="yes"/>
      <point x="306" y="660"/>
      <point x="362" y="660"/>
      <point x="376" y="660" type="curve" smooth="yes"/>
      <point x="390" y="660"/>
      <point x="412" y="660"/>
      <point x="437" y="650" type="curve"/>
      <point x="422" y="641"/>
      <point x="411" y="624"/>
      <point x="411" y="598" type="curve" smooth="yes"/>
      <point x="411" y="576"/>
      <point x="419" y="558"/>
      <point x="437" y="546" type="curve"/>
      <point x="437" y="444" type="line"/>
    </contour>
    <contour>
      <point x="765" y="444" type="line"/>
      <point x="542" y="444" type="line"/>
      <point x="542" y="540" type="line" smooth="yes"/>
      <point x="542" y="559"/>
      <point x="542" y="601"/>
      <point x="590" y="632" type="curve" smooth="yes"/>
      <point x="631" y="658"/>
      <point x="682" y="660"/>
      <point x="706" y="660" type="curve" smooth="yes"/>
      <point x="711" y="660"/>
      <point x="754" y="659"/>
      <point x="754" y="655" type="curve" smooth="yes"/>
      <point x="754" y="654"/>
      <point x="754" y="653"/>
      <point x="753" y="652" type="curve"/>
      <point x="739" y="634"/>
      <point x="739" y="620"/>
      <point x="739" y="611" type="curve" smooth="yes"/>
      <point x="739" y="585"/>
      <point x="750" y="568"/>
      <point x="765" y="559" type="curve"/>
    </contour>
  </outline>
</glyph>
<glyph name="fi" format="2">
  <advance width="657"/>
  <outline>
    <contour>
      <point x="368" y="449" type="line"/>
      <point x="368" y="444" type="line"/>
      <point x="214" y="444" type="line"/>
      <point x="214" y="540" type="line" smooth="yes"/>
      <point x="214" y="628"/>
      <point x="292" y="660"/>
      <point x="377" y="660" type="curve" smooth="yes"/>
      <point x="388" y="660"/>
      <point x="419" y="660"/>
      <point x="448" y="644" type="curve"/>
      <point x="430" y="636"/>
      <point x="408" y="617"/>
      <point x="408" y="581" type="curve" smooth="yes"/>
      <point x="408" y="542"/>
      <point x="436" y="514"/>
      <point x="475" y="514" type="curve" smooth="yes"/>
      <point x="512" y="514"/>
      <point x="542" y="540"/>
      <point x="542" y="582" type="curve" smooth="yes"/>
      <point x="542" y="634"/>
      <point x="498" y="700"/>
      <point x="385" y="700" type="curve" smooth="yes"/>
      <point x="255" y="700"/>
      <point x="109" y="660"/>
      <point x="109" y="542" type="curve" smooth="yes"/>
      <point x="109" y="444" type="line"/>
      <point x="32" y="444" type="line"/>
      <point x="32" y="395" type="line"/>
      <point x="109" y="395" type="line"/>
      <point x="109" y="49" type="line"/>
      <point x="41" y="49" type="line"/>
      <point x="41" y="0" type="line"/>
      <point x="109" y="3"/>
      <point x="121" y="3"/>
      <point x="164" y="3" type="curve" smooth="yes"/>
      <point x="208" y="3"/>
      <point x="234" y="2"/>
      <point x="288" y="0" type="curve"/>
      <point x="288" y="49" type="line"/>
      <point x="220" y="49" type="line"/>
      <point x="220" y="395" type="line"/>
      <point x="408" y="395" type="line" smooth="yes"/>
      <point x="431" y="395"/>
      <point x="436" y="395"/>
      <point x="436" y="360" type="curve" smooth="yes"/>
      <point x="436" y="49" type="line"/>
      <point x="368" y="49" type="line"/>
      <point x="368" y="0" type="line"/>
      <point x="436" y="3"/>
      <point x="448" y="3"/>
      <point x="491" y="3" type="curve" smooth="yes"/>
      <point x="535" y="3"/>
      <point x="561" y="2"/>
      <point x="615" y="0" type="curve"/>
      <point x="615" y="49" type="line"/>
      <point x="547" y="49" type="line"/>
      <point x="547" y="454" type="line"/>
    </contour>
  </outline>
</glyph>
<glyph name="suppress" format="2">
  <advance width="328"/>
  <outline>
    <contour>
      <point x="333" y="354" type="line"/>
      <point x="321" y="401" type="line"/>
      <point x="19" y="325" type="line"/>
      <point x="31" y="277" type="line"/>
    </contour>
  </outline>
</glyph>
